<svg width="16" height="16" viewBox="0 0 16 16" fill="none" xmlns="http://www.w3.org/2000/svg">
<path d="M9.33333 12.6667V4.66666C9.33333 4.31304 9.19286 3.9739 8.94281 3.72385C8.69276 3.4738 8.35362 3.33333 8 3.33333H6" stroke="#BFD7F9" stroke-linecap="round" stroke-linejoin="round"/>
<path d="M10 12.6667H6" stroke="#BFD7F9" stroke-linecap="round" stroke-linejoin="round"/>
<path d="M12.6667 12.6667H14C14.1768 12.6667 14.3464 12.5964 14.4714 12.4714C14.5964 12.3464 14.6667 12.1768 14.6667 12V9.56667C14.6658 9.41629 14.6141 9.27063 14.52 9.15333L12.2 6.25333C12.1379 6.17476 12.0589 6.11119 11.9689 6.06733C11.8789 6.02348 11.7801 6.00046 11.68 6H9.33333" stroke="#BFD7F9" stroke-linecap="round" stroke-linejoin="round"/>
<path d="M1.33333 8.66667V12C1.33333 12.1768 1.40357 12.3464 1.52859 12.4714C1.65362 12.5964 1.82319 12.6667 2 12.6667H3.33333" stroke="#BFD7F9" stroke-linecap="round" stroke-linejoin="round"/>
<path d="M2.66667 2L1.43333 3.43333C1.38358 3.47884 1.34896 3.53849 1.33414 3.60427C1.31931 3.67004 1.32499 3.73878 1.3504 3.80123C1.37582 3.86368 1.41975 3.91685 1.4763 3.95358C1.53284 3.99031 1.59928 4.00883 1.66667 4.00667H3.1C3.17267 3.98966 3.24902 3.99915 3.31531 4.03343C3.3816 4.06771 3.43348 4.12452 3.46162 4.19364C3.48975 4.26277 3.49228 4.33967 3.46877 4.41049C3.44525 4.48132 3.39722 4.54143 3.33333 4.58L2 6.01333" stroke="#BFD7F9" stroke-linecap="round" stroke-linejoin="round"/>
<path d="M11.3333 14C12.0697 14 12.6667 13.403 12.6667 12.6667C12.6667 11.9303 12.0697 11.3333 11.3333 11.3333C10.597 11.3333 10 11.9303 10 12.6667C10 13.403 10.597 14 11.3333 14Z" stroke="#BFD7F9" stroke-linecap="round" stroke-linejoin="round"/>
<path d="M4.66667 14C5.40305 14 6 13.403 6 12.6667C6 11.9303 5.40305 11.3333 4.66667 11.3333C3.93029 11.3333 3.33333 11.9303 3.33333 12.6667C3.33333 13.403 3.93029 14 4.66667 14Z" stroke="#BFD7F9" stroke-linecap="round" stroke-linejoin="round"/>
</svg>
