<svg width="20" height="20" viewBox="0 0 20 20" fill="none" xmlns="http://www.w3.org/2000/svg">
<path d="M8.33325 11.1667C8.33325 11.8134 8.83326 12.3334 9.44659 12.3334H10.6999C11.2332 12.3334 11.6666 11.88 11.6666 11.3134C11.6666 10.7067 11.3999 10.4867 11.0066 10.3467L8.99992 9.6467C8.60659 9.5067 8.33993 9.29337 8.33993 8.68003C8.33993 8.12003 8.77325 7.66003 9.30658 7.66003H10.5599C11.1732 7.66003 11.6733 8.18003 11.6733 8.8267" stroke="#BFD7F9" stroke-linecap="round" stroke-linejoin="round"/>
<path d="M10 7V13" stroke="#BFD7F9" stroke-linecap="round" stroke-linejoin="round"/>
<path d="M16.6666 9.99998C16.6666 13.68 13.6799 16.6666 9.99992 16.6666C6.31992 16.6666 3.33325 13.68 3.33325 9.99998C3.33325 6.31998 6.31992 3.33331 9.99992 3.33331" stroke="#BFD7F9" stroke-linecap="round" stroke-linejoin="round"/>
<path d="M16.6667 5.99998V3.33331H14" stroke="#BFD7F9" stroke-linecap="round" stroke-linejoin="round"/>
<path d="M13.3333 6.66665L16.6666 3.33331" stroke="#BFD7F9" stroke-linecap="round" stroke-linejoin="round"/>
</svg>
