<svg width="20" height="20" viewBox="0 0 20 20" fill="none" xmlns="http://www.w3.org/2000/svg">
<path d="M10.6134 3.50665L14.9534 5.84665C15.4601 6.11999 15.4601 6.89999 14.9534 7.17332L10.6134 9.51332C10.2267 9.71999 9.77341 9.71999 9.38675 9.51332L5.04675 7.17332C4.54008 6.89999 4.54008 6.11999 5.04675 5.84665L9.38675 3.50665C9.77341 3.29999 10.2267 3.29999 10.6134 3.50665Z" stroke="#BFD7F9" stroke-linecap="round" stroke-linejoin="round"/>
<path d="M4.40659 8.75335L8.43992 10.7733C8.93992 11.0267 9.25992 11.54 9.25992 12.1V15.9133C9.25992 16.4667 8.67992 16.82 8.18658 16.5733L4.15325 14.5533C3.65325 14.3 3.33325 13.7867 3.33325 13.2267V9.41335C3.33325 8.86001 3.91325 8.50668 4.40659 8.75335Z" stroke="#BFD7F9" stroke-linecap="round" stroke-linejoin="round"/>
<path d="M15.5933 8.75335L11.56 10.7733C11.06 11.0267 10.74 11.54 10.74 12.1V15.9133C10.74 16.4667 11.32 16.82 11.8133 16.5733L15.8467 14.5533C16.3467 14.3 16.6667 13.7867 16.6667 13.2267V9.41335C16.6667 8.86001 16.0867 8.50668 15.5933 8.75335Z" stroke="#BFD7F9" stroke-linecap="round" stroke-linejoin="round"/>
</svg>
