<svg width="20" height="20" viewBox="0 0 20 20" fill="none" xmlns="http://www.w3.org/2000/svg">
<path d="M16.6667 6.00001V7.61334C16.6667 8.66668 16.0001 9.33334 14.9467 9.33334H12.6667V4.67334C12.6667 3.93334 13.2734 3.33334 14.0134 3.33334C14.7401 3.34001 15.4068 3.63334 15.8868 4.11334C16.3668 4.60001 16.6667 5.26668 16.6667 6.00001Z" stroke="#BFD7F9" stroke-miterlimit="10" stroke-linecap="round" stroke-linejoin="round"/>
<path d="M3.33325 6.66668V16C3.33325 16.5533 3.9599 16.8667 4.3999 16.5333L5.53992 15.68C5.80658 15.48 6.17992 15.5067 6.41992 15.7467L7.52657 16.86C7.78657 17.12 8.21327 17.12 8.47327 16.86L9.59326 15.74C9.8266 15.5067 10.1999 15.48 10.4599 15.68L11.5999 16.5333C12.0399 16.86 12.6666 16.5467 12.6666 16V4.66668C12.6666 3.93334 13.2666 3.33334 13.9999 3.33334H6.66659H5.99992C3.99992 3.33334 3.33325 4.52668 3.33325 6.00001V6.66668Z" stroke="#BFD7F9" stroke-miterlimit="10" stroke-linecap="round" stroke-linejoin="round"/>
<path d="M6 8H10" stroke="#BFD7F9" stroke-linecap="round" stroke-linejoin="round"/>
<path d="M6.5 10.6667H9.5" stroke="#BFD7F9" stroke-linecap="round" stroke-linejoin="round"/>
</svg>
