<svg width="16" height="16" viewBox="0 0 16 16" fill="none" xmlns="http://www.w3.org/2000/svg">
<path d="M10 8H6.66667" stroke="#BFD7F9" stroke-linecap="round" stroke-linejoin="round"/>
<path d="M10 5.33333H6.66667" stroke="#BFD7F9" stroke-linecap="round" stroke-linejoin="round"/>
<path d="M12.6667 11.3333V3.33333C12.6667 2.97971 12.5262 2.64057 12.2761 2.39052C12.0261 2.14048 11.687 2 11.3333 2H2.66667" stroke="#BFD7F9" stroke-linecap="round" stroke-linejoin="round"/>
<path d="M5.33333 14H13.3333C13.6869 14 14.0261 13.8595 14.2761 13.6095C14.5262 13.3594 14.6667 13.0203 14.6667 12.6667V12C14.6667 11.8232 14.5964 11.6536 14.4714 11.5286C14.3464 11.4036 14.1768 11.3333 14 11.3333H7.33333C7.15652 11.3333 6.98695 11.4036 6.86192 11.5286C6.7369 11.6536 6.66666 11.8232 6.66666 12V12.6667C6.66666 13.0203 6.52619 13.3594 6.27614 13.6095C6.02609 13.8595 5.68695 14 5.33333 14ZM5.33333 14C4.97971 14 4.64057 13.8595 4.39052 13.6095C4.14047 13.3594 3.99999 13.0203 3.99999 12.6667V3.33333C3.99999 2.97971 3.85952 2.64057 3.60947 2.39052C3.35942 2.14048 3.02028 2 2.66666 2C2.31304 2 1.9739 2.14048 1.72385 2.39052C1.4738 2.64057 1.33333 2.97971 1.33333 3.33333V4.66667C1.33333 4.84348 1.40357 5.01305 1.52859 5.13807C1.65361 5.2631 1.82318 5.33333 1.99999 5.33333H3.99999" stroke="#BFD7F9" stroke-linecap="round" stroke-linejoin="round"/>
</svg>
