<svg width="14" height="15" viewBox="0 0 14 15" fill="none" xmlns="http://www.w3.org/2000/svg">
<g clip-path="url(#clip0_22847_3793)">
<mask id="mask0_22847_3793" style="mask-type:luminance" maskUnits="userSpaceOnUse" x="0" y="0" width="14" height="15">
<path d="M14 0H0V15H14V0Z" fill="white"/>
</mask>
<g mask="url(#mask0_22847_3793)">
<path d="M7.58333 9.375H4.08333L5.24999 10.625" stroke="#BFD7F9" stroke-linecap="round" stroke-linejoin="round"/>
<path d="M4.08333 9.375L5.24999 8.125" stroke="#BFD7F9" stroke-linecap="round" stroke-linejoin="round"/>
<path d="M12.8333 6.25V9.375C12.8333 12.5 11.6667 13.75 8.75 13.75H5.25C2.33333 13.75 1.16666 12.5 1.16666 9.375V5.625C1.16666 2.5 2.33333 1.25 5.25 1.25H8.16666" stroke="#BFD7F9" stroke-linecap="round" stroke-linejoin="round"/>
<path d="M12.8333 6.25H10.5C8.75 6.25 8.16666 5.625 8.16666 3.75V1.25L10.5 3.75L12.8333 6.25Z" stroke="#BFD7F9" stroke-linecap="round" stroke-linejoin="round"/>
</g>
</g>
<defs>
<clipPath id="clip0_22847_3793">
<rect width="14" height="15" fill="white"/>
</clipPath>
</defs>
</svg>
