<svg width="16" height="16" viewBox="0 0 16 16" fill="none" xmlns="http://www.w3.org/2000/svg">
<path d="M13.3334 7.33331C13.3334 10.6466 10.6467 13.3333 7.33337 13.3333C4.02004 13.3333 1.33337 10.6466 1.33337 7.33331C1.33337 4.01998 4.02004 1.33331 7.33337 1.33331" stroke="#E6E7E7" stroke-linecap="round" stroke-linejoin="round"/>
<path d="M8.99999 4.08667C8.76665 3.35334 9.03999 2.44 9.81332 2.19334C10.22 2.06 10.72 2.17334 11.0067 2.56667C11.2733 2.16 11.7933 2.06667 12.1933 2.19334C12.9667 2.44 13.24 3.35334 13.0067 4.08667C12.64 5.25334 11.36 5.86 11.0067 5.86C10.6467 5.86 9.37999 5.26667 8.99999 4.08667Z" stroke="#E6E7E7" stroke-linecap="round" stroke-linejoin="round"/>
<path d="M12.62 13.7932C12.9733 14.8599 13.78 14.9665 14.4 14.0332C14.9667 13.1799 14.5933 12.4799 13.5667 12.4799C12.8067 12.4732 12.38 13.0665 12.62 13.7932Z" stroke="#E6E7E7" stroke-linecap="round" stroke-linejoin="round"/>
</svg>
