<svg width="20" height="20" viewBox="0 0 20 20" fill="none" xmlns="http://www.w3.org/2000/svg">
<path d="M10 12C11.1046 12 12 11.1046 12 10C12 8.89543 11.1046 8 10 8C8.89543 8 8 8.89543 8 10C8 11.1046 8.89543 12 10 12Z" stroke="#BFD7F9" stroke-miterlimit="10" stroke-linecap="round" stroke-linejoin="round"/>
<path d="M3.33325 10.5867V9.41333C3.33325 8.72 3.89992 8.14667 4.59992 8.14667C5.80659 8.14667 6.29992 7.29333 5.69325 6.24667C5.34659 5.64667 5.55325 4.86667 6.15992 4.52L7.31325 3.86C7.83992 3.54666 8.51992 3.73333 8.83325 4.26L8.90659 4.38666C9.50659 5.43333 10.4933 5.43333 11.0999 4.38666L11.1733 4.26C11.4866 3.73333 12.1666 3.54666 12.6933 3.86L13.8466 4.52C14.4533 4.86667 14.6599 5.64667 14.3133 6.24667C13.7066 7.29333 14.1999 8.14667 15.4066 8.14667C16.0999 8.14667 16.6733 8.71333 16.6733 9.41333V10.5867C16.6733 11.28 16.1066 11.8533 15.4066 11.8533C14.1999 11.8533 13.7066 12.7067 14.3133 13.7533C14.6599 14.36 14.4533 15.1333 13.8466 15.48L12.6933 16.14C12.1666 16.4533 11.4866 16.2667 11.1733 15.74L11.0999 15.6133C10.4999 14.5667 9.51325 14.5667 8.90659 15.6133L8.83325 15.74C8.51992 16.2667 7.83992 16.4533 7.31325 16.14L6.15992 15.48C5.55325 15.1333 5.34659 14.3533 5.69325 13.7533C6.29992 12.7067 5.80659 11.8533 4.59992 11.8533C3.89992 11.8533 3.33325 11.28 3.33325 10.5867Z" stroke="#BFD7F9" stroke-miterlimit="10" stroke-linecap="round" stroke-linejoin="round"/>
</svg>
