<svg width="20" height="20" viewBox="0 0 20 20" fill="none" xmlns="http://www.w3.org/2000/svg">
<path d="M4.11328 6.96002L9.99994 10.3667L15.8466 6.98" stroke="#BFD7F9" stroke-linecap="round" stroke-linejoin="round"/>
<path d="M10 16.4067V10.36" stroke="#BFD7F9" stroke-linecap="round" stroke-linejoin="round"/>
<path d="M8.61991 3.65334L5.05992 5.63336C4.25325 6.08003 3.59326 7.20002 3.59326 8.12002V11.8867C3.59326 12.8067 4.25325 13.9267 5.05992 14.3734L8.61991 16.3534C9.37991 16.7734 10.6266 16.7734 11.3866 16.3534L14.9466 14.3734C15.7533 13.9267 16.4132 12.8067 16.4132 11.8867V8.12002C16.4132 7.20002 15.7533 6.08003 14.9466 5.63336L11.3866 3.65334C10.6199 3.22668 9.37991 3.22668 8.61991 3.65334Z" stroke="#BFD7F9" stroke-linecap="round" stroke-linejoin="round"/>
<path d="M13.3333 10.8267V8.38667L7.00659 4.73331" stroke="#BFD7F9" stroke-linecap="round" stroke-linejoin="round"/>
</svg>
