<svg width="20" height="20" viewBox="0 0 20 20" fill="none" xmlns="http://www.w3.org/2000/svg">
<path d="M17.5667 7.15005V12.85C17.5667 13.7834 17.0667 14.6501 16.2584 15.1251L11.3084 17.9834C10.5 18.45 9.50005 18.45 8.68338 17.9834L3.73338 15.1251C2.92505 14.6584 2.42505 13.7917 2.42505 12.85V7.15005C2.42505 6.21672 2.92505 5.35001 3.73338 4.87501L8.68338 2.01669C9.49172 1.55002 10.4917 1.55002 11.3084 2.01669L16.2584 4.87501C17.0667 5.35001 17.5667 6.20838 17.5667 7.15005Z" stroke="#BFD7F9" stroke-linecap="round" stroke-linejoin="round"/>
<path d="M10 9.16664C11.0724 9.16664 11.9417 8.29731 11.9417 7.22496C11.9417 6.1526 11.0724 5.28333 10 5.28333C8.92766 5.28333 8.05835 6.1526 8.05835 7.22496C8.05835 8.29731 8.92766 9.16664 10 9.16664Z" stroke="#BFD7F9" stroke-linecap="round" stroke-linejoin="round"/>
<path d="M13.3334 13.8832C13.3334 12.3832 11.8417 11.1666 10.0001 11.1666C8.15841 11.1666 6.66675 12.3832 6.66675 13.8832" stroke="#BFD7F9" stroke-linecap="round" stroke-linejoin="round"/>
</svg>
