<svg width="16" height="16" viewBox="0 0 16 16" fill="none" xmlns="http://www.w3.org/2000/svg">
<path d="M10.6667 7.33333L12 8.66667L14.6667 6" stroke="#F5F5F5" stroke-linecap="round" stroke-linejoin="round"/>
<path d="M10.6667 14V12.6667C10.6667 11.9594 10.3857 11.2811 9.88562 10.781C9.38552 10.281 8.70725 10 8 10H4C3.29276 10 2.61448 10.281 2.11438 10.781C1.61429 11.2811 1.33334 11.9594 1.33334 12.6667V14" stroke="#F5F5F5" stroke-linecap="round" stroke-linejoin="round"/>
<path d="M6 7.33333C7.47276 7.33333 8.66667 6.13943 8.66667 4.66667C8.66667 3.19391 7.47276 2 6 2C4.52724 2 3.33334 3.19391 3.33334 4.66667C3.33334 6.13943 4.52724 7.33333 6 7.33333Z" stroke="#F5F5F5" stroke-linecap="round" stroke-linejoin="round"/>
</svg>
